<?xml version="1.0" encoding="utf-8"?><!-- Uploaded to: SVG Repo, www.svgrepo.com, Generator: SVG Repo Mixer Tools -->

 <svg >
  <g data-v-70b83f88="" fill="#333" class="icon-text-wrapper icon-svg-group iconsvg" transform="translate(73.16000366210938,95.88699913024902)"><g class="iconsvg-imagesvg" transform="translate(0,5.122596740722656)"><g><rect fill="#333" fill-opacity="0" stroke-width="2" x="0" y="0" width="60" height="47.98080767692923" class="image-rect"></rect> <svg x="0" y="0" width="60" height="47.98080767692923" filtersec="colorsb8150846346" class="image-svg-svg primary" style="overflow: visible;"><svg xmlns="http://www.w3.org/2000/svg" viewBox="0 0 125.05000305175781 100"><title>资源 252</title><path fill="#333" d="M75.24 20.26L62.57 0 0 100h25.35l49.89-79.74z"></path><path fill="#d52b29" d="M87.69 40.37L71.7 65.93h31.98L87.69 40.37z"></path><path fill="#333" d="M59.23 85.93L50.43 100h74.62l-8.81-14.07H59.23z"></path></svg></svg> <!----></g></g> <g transform="translate(67,0)"><g data-gra="path-name" fill-rule="" class="tp-name iconsvg-namesvg" transform="translate(0,0)"><g transform="scale(1)"><g><path d="M42.84 0L24.57-43.03 18.46-43.03 0.2 0 5.59 0 10.86-12.48 32.18-12.48 37.44 0ZM30.29-16.96L12.74-16.96 21.52-37.96ZM66.82-38.8C73.18-38.8 77.77-35.6 80.15-31.33L85.47-31.33C82.34-38.53 75.69-43.55 65.2-43.55 62.42-43.55 59.73-42.98 57.14-41.83 49.77-38.58 44.72-31.03 44.72-21.52 44.72-15.19 46.58-9.99 50.31-5.92 53.41-2.52 58.75 0.52 64.77 0.52 67.39 0.52 69.51 0.3 71.11-0.13 75.49-1.39 78.91-3.88 81.38-7.61L81.38 0 85.87 0 85.87-22.88 65.65-22.88 65.65-18.46 81.38-18.46C81.38-10.12 74.53-4.23 66.17-4.23 56.19-4.22 49.6-11.38 49.59-21.52 49.59-31.81 55.98-38.8 66.82-38.8ZM108.39-39C115.19-39 120.14-36.44 120.77-31.27L125.78-31.27C125.6-34.73 124.15-37.57 121.42-39.78 118.43-42.29 114.21-43.55 108.75-43.55 99.57-43.55 92.56-39.94 92.56-31.66 92.56-29.19 93.29-27.22 94.74-25.77 99.19-21.32 107.47-20.31 114.37-18.27 117.81-17.24 122.01-15.71 122.01-11.7 122.01-6.63 117.98-4.09 109.92-4.09 102.74-4.09 96.7-6.65 96.33-12.87L91.26-12.87C92.14-3.45 99.16 0.52 109.85 0.52 119.32 0.52 126.88-2.99 126.88-11.89 126.88-23.23 110.35-23.09 101.92-26.52 99.87-27.35 97.31-28.84 97.31-31.3 97.31-37.14 102.29-39 108.39-39Z" transform="translate(-0.20000000298023224, 43.54999923706055)"></path></g> <!----> <!----> <!----> <!----> <!----> <!----> <!----></g></g> <g data-gra="path-slogan" fill-rule="" class="tp-slogan iconsvg-slogansvg" fill="#333" transform="translate(11.490001678466797,50.06999969482422)"><!----> <!----> <g transform="scale(1, 1)"><g transform="scale(1)"><path d="M1.08-7.87L1.08 0L3.59 0C4.03 0 4.43-0.05 4.80-0.14C5.17-0.24 5.48-0.38 5.75-0.58C6.01-0.77 6.22-1.01 6.36-1.30C6.50-1.58 6.58-1.92 6.58-2.30C6.58-2.85 6.42-3.28 6.10-3.59C5.78-3.90 5.33-4.10 4.75-4.19L4.75-4.24C5.22-4.36 5.56-4.57 5.78-4.89C6.01-5.21 6.12-5.56 6.12-5.95C6.12-6.30 6.05-6.59 5.92-6.83C5.79-7.08 5.61-7.28 5.37-7.43C5.13-7.58 4.85-7.69 4.52-7.76C4.19-7.84 3.82-7.87 3.42-7.87ZM3.24-4.51L2.08-4.51L2.08-7.08L3.29-7.08C3.90-7.08 4.37-6.99 4.67-6.80C4.98-6.61 5.14-6.30 5.14-5.87C5.14-5.43 4.99-5.09 4.70-4.86C4.41-4.63 3.92-4.51 3.24-4.51ZM3.44-0.79L2.08-0.79L2.08-3.77L3.44-3.77C4.14-3.77 4.67-3.65 5.04-3.43C5.41-3.20 5.59-2.84 5.59-2.35C5.59-1.82 5.40-1.42 5.03-1.17C4.65-0.92 4.12-0.79 3.44-0.79ZM8.10-7.87L8.10-3.25C8.10-2.62 8.17-2.09 8.32-1.66C8.46-1.22 8.66-0.87 8.91-0.61C9.16-0.34 9.46-0.15 9.81-0.03C10.16 0.09 10.53 0.14 10.93 0.14C11.33 0.14 11.70 0.09 12.05-0.03C12.39-0.15 12.69-0.34 12.94-0.61C13.19-0.87 13.39-1.22 13.54-1.66C13.68-2.09 13.75-2.62 13.75-3.25L13.75-7.87L12.79-7.87L12.79-3.23C12.79-2.76 12.74-2.36 12.65-2.04C12.55-1.72 12.42-1.46 12.25-1.27C12.08-1.08 11.89-0.94 11.66-0.86C11.44-0.77 11.20-0.73 10.93-0.73C10.68-0.73 10.44-0.77 10.21-0.86C9.99-0.94 9.79-1.08 9.63-1.27C9.47-1.46 9.34-1.72 9.24-2.04C9.14-2.36 9.10-2.76 9.10-3.23L9.10-7.87ZM15.88-7.87L15.88 0L16.87 0L16.87-7.87ZM19.03-7.87L19.03 0L23.47 0L23.47-0.85L20.03-0.85L20.03-7.87ZM24.86-7.87L24.86 0L26.88 0C27.47 0 28.00-0.09 28.45-0.27C28.91-0.45 29.29-0.71 29.60-1.05C29.92-1.39 30.15-1.81 30.31-2.30C30.47-2.79 30.55-3.35 30.55-3.97C30.55-5.23 30.24-6.19 29.60-6.86C28.97-7.54 28.05-7.87 26.83-7.87ZM26.76-0.82L25.86-0.82L25.86-7.06L26.76-7.06C27.68-7.06 28.37-6.79 28.83-6.26C29.29-5.74 29.52-4.97 29.52-3.97C29.52-2.97 29.29-2.20 28.83-1.64C28.37-1.09 27.68-0.82 26.76-0.82ZM35.94-3.05L35.94 0L36.95 0L36.95-3.05L39.31-7.87L38.27-7.87L37.26-5.65C37.14-5.36 37.01-5.08 36.88-4.80C36.74-4.52 36.60-4.23 36.47-3.94L36.42-3.94C36.28-4.23 36.16-4.52 36.04-4.80C35.92-5.08 35.79-5.36 35.66-5.65L34.64-7.87L33.58-7.87ZM43.12 0.14C43.61 0.14 44.07 0.05 44.48-0.14C44.89-0.34 45.25-0.61 45.55-0.97C45.85-1.32 46.08-1.75 46.24-2.26C46.41-2.77 46.49-3.34 46.49-3.97C46.49-4.60 46.41-5.16 46.24-5.66C46.08-6.16 45.85-6.58 45.55-6.93C45.25-7.28 44.89-7.55 44.48-7.73C44.07-7.92 43.61-8.02 43.12-8.02C42.62-8.02 42.17-7.92 41.75-7.74C41.34-7.56 40.99-7.29 40.69-6.94C40.40-6.59 40.17-6.17 40.00-5.67C39.84-5.17 39.76-4.60 39.76-3.97C39.76-3.34 39.84-2.77 40.00-2.26C40.17-1.75 40.40-1.32 40.69-0.97C40.99-0.61 41.34-0.34 41.75-0.14C42.17 0.05 42.62 0.14 43.12 0.14ZM43.12-0.73C42.76-0.73 42.45-0.81 42.16-0.96C41.88-1.11 41.63-1.33 41.43-1.61C41.23-1.90 41.07-2.24 40.96-2.63C40.84-3.03 40.79-3.48 40.79-3.97C40.79-4.46 40.84-4.90 40.96-5.29C41.07-5.68 41.23-6.02 41.43-6.29C41.63-6.56 41.88-6.77 42.16-6.92C42.45-7.07 42.76-7.14 43.12-7.14C43.47-7.14 43.79-7.07 44.07-6.92C44.35-6.77 44.60-6.56 44.80-6.29C45.01-6.02 45.16-5.68 45.28-5.29C45.39-4.90 45.44-4.46 45.44-3.97C45.44-3.48 45.39-3.03 45.28-2.63C45.16-2.24 45.01-1.90 44.80-1.61C44.60-1.33 44.35-1.11 44.07-0.96C43.79-0.81 43.47-0.73 43.12-0.73ZM48.14-7.87L48.14-3.25C48.14-2.62 48.22-2.09 48.36-1.66C48.50-1.22 48.70-0.87 48.95-0.61C49.21-0.34 49.51-0.15 49.85-0.03C50.20 0.09 50.58 0.14 50.98 0.14C51.38 0.14 51.75 0.09 52.09-0.03C52.44-0.15 52.73-0.34 52.99-0.61C53.24-0.87 53.44-1.22 53.58-1.66C53.72-2.09 53.80-2.62 53.80-3.25L53.80-7.87L52.84-7.87L52.84-3.23C52.84-2.76 52.79-2.36 52.69-2.04C52.60-1.72 52.46-1.46 52.30-1.27C52.13-1.08 51.93-0.94 51.71-0.86C51.48-0.77 51.24-0.73 50.98-0.73C50.72-0.73 50.48-0.77 50.26-0.86C50.03-0.94 49.84-1.08 49.67-1.27C49.51-1.46 49.38-1.72 49.28-2.04C49.19-2.36 49.14-2.76 49.14-3.23L49.14-7.87ZM56.92-4.14L56.92-7.07L58.24-7.07C58.85-7.07 59.32-6.96 59.65-6.76C59.98-6.55 60.14-6.18 60.14-5.66C60.14-5.15 59.98-4.77 59.65-4.52C59.32-4.27 58.85-4.14 58.24-4.14ZM60.24 0L61.37 0L59.38-3.43C59.91-3.57 60.34-3.82 60.66-4.19C60.98-4.56 61.14-5.05 61.14-5.66C61.14-6.07 61.07-6.42 60.94-6.70C60.80-6.98 60.61-7.20 60.37-7.38C60.12-7.56 59.83-7.68 59.49-7.76C59.15-7.83 58.78-7.87 58.38-7.87L55.92-7.87L55.92 0L56.92 0L56.92-3.32L58.34-3.32ZM65.32-7.87L65.32 0L66.31 0L66.31-3.53L69.31-3.53L69.31-4.37L66.31-4.37L66.31-7.03L69.85-7.03L69.85-7.87ZM71.21-7.87L71.21-3.25C71.21-2.62 71.28-2.09 71.42-1.66C71.57-1.22 71.77-0.87 72.02-0.61C72.27-0.34 72.57-0.15 72.92-0.03C73.27 0.09 73.64 0.14 74.04 0.14C74.44 0.14 74.81 0.09 75.16-0.03C75.50-0.15 75.80-0.34 76.05-0.61C76.30-0.87 76.50-1.22 76.64-1.66C76.79-2.09 76.86-2.62 76.86-3.25L76.86-7.87L75.90-7.87L75.90-3.23C75.90-2.76 75.85-2.36 75.76-2.04C75.66-1.72 75.53-1.46 75.36-1.27C75.19-1.08 75.00-0.94 74.77-0.86C74.55-0.77 74.30-0.73 74.04-0.73C73.78-0.73 73.54-0.77 73.32-0.86C73.10-0.94 72.90-1.08 72.74-1.27C72.57-1.46 72.44-1.72 72.35-2.04C72.25-2.36 72.20-2.76 72.20-3.23L72.20-7.87ZM80.62-7.03L80.62 0L81.62 0L81.62-7.03L84-7.03L84-7.87L78.24-7.87L78.24-7.03ZM85.38-7.87L85.38-3.25C85.38-2.62 85.45-2.09 85.60-1.66C85.74-1.22 85.94-0.87 86.19-0.61C86.44-0.34 86.74-0.15 87.09-0.03C87.44 0.09 87.81 0.14 88.21 0.14C88.61 0.14 88.98 0.09 89.33-0.03C89.67-0.15 89.97-0.34 90.22-0.61C90.47-0.87 90.67-1.22 90.82-1.66C90.96-2.09 91.03-2.62 91.03-3.25L91.03-7.87L90.07-7.87L90.07-3.23C90.07-2.76 90.02-2.36 89.93-2.04C89.83-1.72 89.70-1.46 89.53-1.27C89.36-1.08 89.17-0.94 88.94-0.86C88.72-0.77 88.48-0.73 88.21-0.73C87.96-0.73 87.72-0.77 87.49-0.86C87.27-0.94 87.07-1.08 86.91-1.27C86.75-1.46 86.62-1.72 86.52-2.04C86.42-2.36 86.38-2.76 86.38-3.23L86.38-7.87ZM94.15-4.14L94.15-7.07L95.47-7.07C96.09-7.07 96.56-6.96 96.89-6.76C97.22-6.55 97.38-6.18 97.38-5.66C97.38-5.15 97.22-4.77 96.89-4.52C96.56-4.27 96.09-4.14 95.47-4.14ZM97.48 0L98.60 0L96.61-3.43C97.15-3.57 97.58-3.82 97.90-4.19C98.22-4.56 98.38-5.05 98.38-5.66C98.38-6.07 98.31-6.42 98.17-6.70C98.04-6.98 97.85-7.20 97.60-7.38C97.36-7.56 97.07-7.68 96.73-7.76C96.39-7.83 96.02-7.87 95.62-7.87L93.16-7.87L93.16 0L94.15 0L94.15-3.32L95.58-3.32ZM100.13-7.87L100.13 0L104.78 0L104.78-0.85L101.12-0.85L101.12-3.71L104.11-3.71L104.11-4.56L101.12-4.56L101.12-7.03L104.66-7.03L104.66-7.87Z" transform="translate(-1.08, 8.016)"></path></g></g></g></g></g>
  </svg>